<svg width="771" height="250" viewBox="0 0 771 250" fill="none" xmlns="http://www.w3.org/2000/svg">
<path fill-rule="evenodd" clip-rule="evenodd" d="M460.872 102.728C449.016 102.728 443.889 108.964 443.889 118.559V131.029C443.889 142.222 450.778 147.179 461.029 147.179C472.564 147.179 479.613 139.663 479.613 127.831V121.754C479.613 110.244 472.885 102.728 460.872 102.728V102.728ZM507.807 168.124H479.613V152.616H478.011C474.169 162.687 464.714 169.723 450.618 169.723C428.83 169.723 415.375 153.575 415.375 124.792C415.375 96.9717 428.189 80.0244 449.657 80.0244C461.99 80.0244 473.045 85.7809 478.011 97.1316H479.613L483.298 81.6235H507.807V168.124Z" fill="#CFAA57"/>
<path fill-rule="evenodd" clip-rule="evenodd" d="M616.909 81.6229H633.248V104.327H616.909V168.123H588.555V104.327H561.64V168.123H533.446V104.327H517.427V81.6229H533.446V72.1886C533.446 63.3939 534.247 48.5254 556.994 48.5254H581.185V70.4322H561.64V81.6229H588.555V71.3891C588.555 62.7543 589.516 48.5254 612.103 48.5254H638.374V70.4322H616.909V81.6229Z" fill="#CFAA57"/>
<path fill-rule="evenodd" clip-rule="evenodd" d="M647.833 168.123H676.029V48.5251H647.833V168.123Z" fill="#CFAA57"/>
<path fill-rule="evenodd" clip-rule="evenodd" d="M741.712 113.442V112.48C741.712 105.607 736.105 101.13 727.776 101.13C719.283 101.13 713.678 105.767 713.678 112.48V113.442H741.712ZM728.097 80.0247C752.764 80.0247 769.906 94.8932 769.906 120.315C769.906 123.833 769.586 128.151 769.105 131.509H713.678V135.983C713.678 143.499 719.764 148.458 728.255 148.458C735.624 148.458 740.911 145.42 742.673 140.623H770.387C767.183 158.21 751.162 169.723 728.575 169.723C700.701 169.723 685.003 151.976 685.003 124.953C685.003 96.3323 702.303 80.0247 728.097 80.0247V80.0247Z" fill="#CFAA57"/>
<path fill-rule="evenodd" clip-rule="evenodd" d="M412.95 82.0928L391.667 168.945H357.674L351.799 134.913L349.098 118.054H348.148L345.445 134.75L339.57 168.945H306.373L285.246 82.0928H312.248L318.443 114.683L323.208 140.69H324.477L334.008 82.0928H364.348L373.4 141.011H374.353L378.962 115.004L385.79 82.0928H412.95Z" fill="#CFAA57"/>
<path fill-rule="evenodd" clip-rule="evenodd" d="M160.14 116.197L134.346 90.4524C129.518 85.6328 129.518 77.8175 134.346 72.9954L160.14 47.2534C164.968 42.4338 164.968 34.6185 160.14 29.7964L133.908 3.6147C129.077 -1.2049 121.247 -1.2049 116.418 3.6147L90.1865 29.7964C85.3552 34.6185 85.3552 42.4338 90.1865 47.2534L115.977 72.9954C120.809 77.8175 120.809 85.6328 115.977 90.4524L90.1865 116.197C85.3552 121.016 85.3552 128.832 90.1865 133.651L115.977 159.396C120.809 164.215 120.809 172.031 115.977 176.85L90.1865 202.597C85.3552 207.417 85.3552 215.232 90.1865 220.052L116.418 246.233C121.247 251.053 129.077 251.053 133.908 246.233L160.14 220.052C164.968 215.232 164.968 207.417 160.14 202.597L134.346 176.85C129.518 172.031 129.518 164.215 134.346 159.396L160.14 133.651C164.968 128.832 164.968 121.016 160.14 116.197ZM47.782 116.197L73.5754 90.4523C78.4042 85.6327 78.4042 77.8174 73.5754 72.9953L47.3414 46.8136C42.5151 41.994 34.685 41.994 29.8537 46.8136L3.61969 72.9953C-1.20656 77.8174 -1.20656 85.6327 3.61969 90.4523L29.4157 116.197C34.2444 121.016 34.2444 128.832 29.4157 133.651L3.6222 159.396C-1.20656 164.215 -1.20656 172.031 3.6222 176.85L29.8537 203.034C34.685 207.854 42.5151 207.854 47.3414 203.034L73.5754 176.85C78.4042 172.031 78.4042 164.215 73.5754 159.396L47.782 133.651C42.9532 128.832 42.9532 121.016 47.782 116.197ZM220.471 46.8145L246.702 72.9962C251.534 77.8158 251.534 85.6311 246.702 90.4507L220.909 116.198C216.08 121.017 216.08 128.833 220.909 133.652L246.702 159.397C251.534 164.216 251.534 172.032 246.702 176.851L220.471 203.033C215.642 207.855 207.812 207.855 202.981 203.033L176.749 176.851C171.92 172.032 171.92 164.216 176.749 159.397L202.542 133.652C207.371 128.833 207.371 121.017 202.542 116.198L176.749 90.4507C171.92 85.6311 171.92 77.8158 176.749 72.9962L202.981 46.8145C207.812 41.9924 215.642 41.9924 220.471 46.8145Z" fill="#CFAA57"/>
</svg>
