<svg width="351" height="300" viewBox="0 0 351 300" fill="none" xmlns="http://www.w3.org/2000/svg">
<path fill-rule="evenodd" clip-rule="evenodd" d="M73.2537 235.75L68.279 259.519L64.9209 278.301H64.2283L57.6315 235.75H35.5265L28.5843 278.071H27.6584L24.1864 259.287L19.671 235.75H0L15.3907 298.475H39.5771L43.8593 273.781L45.8267 261.722H46.5211L48.4904 273.897L52.7707 298.475H77.5358L93.0423 235.75H73.2537Z" fill="#CFAA57"/>
<path fill-rule="evenodd" clip-rule="evenodd" d="M126.841 251.055C118.276 251.055 114.573 255.577 114.573 262.534V271.577C114.573 279.693 119.549 283.288 126.955 283.288C135.287 283.288 140.38 277.838 140.38 269.257V264.851C140.38 256.505 135.519 251.055 126.841 251.055V251.055ZM160.747 298.475H140.38V287.23H139.222C136.447 294.533 129.616 299.635 119.434 299.635C103.694 299.635 93.9742 287.926 93.9742 267.054C93.9742 246.881 103.231 234.592 118.739 234.592C127.649 234.592 135.635 238.766 139.222 246.997H140.38L143.042 235.751H160.747V298.475Z" fill="#CFAA57"/>
<path fill-rule="evenodd" clip-rule="evenodd" d="M239.561 235.751H251.364V252.214H239.561V298.475H219.078V252.214H199.635V298.475H179.268V252.214H167.696V235.751H179.268V228.91C179.268 222.532 179.846 211.75 196.279 211.75H213.754V227.636H199.635V235.751H219.078V228.33C219.078 222.068 219.772 211.75 236.089 211.75H255.068V227.636H239.561V235.751Z" fill="#CFAA57"/>
<path fill-rule="evenodd" clip-rule="evenodd" d="M261.901 298.475H282.27V211.75H261.901V298.475Z" fill="#CFAA57"/>
<path fill-rule="evenodd" clip-rule="evenodd" d="M329.718 258.824V258.126C329.718 253.142 325.667 249.896 319.651 249.896C313.515 249.896 309.467 253.258 309.467 258.126V258.824H329.718ZM319.883 234.592C337.702 234.592 350.085 245.373 350.085 263.808C350.085 266.359 349.854 269.49 349.507 271.925H309.467V275.169C309.467 280.619 313.863 284.215 319.997 284.215C325.32 284.215 329.139 282.012 330.413 278.534H350.433C348.118 291.287 336.545 299.635 320.228 299.635C300.092 299.635 288.752 286.766 288.752 267.171C288.752 246.417 301.25 234.592 319.883 234.592V234.592Z" fill="#CFAA57"/>
<path fill-rule="evenodd" clip-rule="evenodd" d="M200.644 83.9967L182.032 65.3864C178.55 61.9024 178.55 56.2529 182.032 52.7689L200.644 34.1587C204.128 30.6747 204.128 25.0251 200.644 21.5411L181.718 2.613C178.232 -0.871 172.583 -0.871 169.099 2.613L150.172 21.5411C146.687 25.0251 146.687 30.6747 150.172 34.1587L168.781 52.7689C172.267 56.2529 172.267 61.9024 168.781 65.3864L150.172 83.9967C146.687 87.4825 146.687 93.1302 150.172 96.6142L168.781 115.226C172.267 118.71 172.267 124.36 168.781 127.844L150.172 146.454C146.687 149.938 146.687 155.588 150.172 159.072L169.099 177.998C172.583 181.484 178.232 181.484 181.718 177.998L200.644 159.072C204.128 155.588 204.128 149.938 200.644 146.454L182.032 127.844C178.55 124.36 178.55 118.71 182.032 115.226L200.644 96.6142C204.128 93.1302 204.128 87.4825 200.644 83.9967ZM119.577 83.9967L138.187 65.3864C141.671 61.9024 141.671 56.2529 138.187 52.7689L119.259 33.8408C115.777 30.3568 110.128 30.3568 106.642 33.8408L87.7137 52.7689C84.2315 56.2529 84.2315 61.9024 87.7137 65.3864L106.326 83.9967C109.81 87.4825 109.81 93.1302 106.326 96.6142L87.7137 115.226C84.2315 118.71 84.2315 124.36 87.7137 127.844L106.642 146.77C110.128 150.256 115.777 150.256 119.259 146.77L138.187 127.844C141.671 124.36 141.671 118.71 138.187 115.226L119.577 96.6142C116.091 93.1302 116.091 87.4825 119.577 83.9967ZM244.174 33.8426L263.1 52.7689C266.586 56.2529 266.586 61.9024 263.1 65.3864L244.49 83.9967C241.006 87.4825 241.006 93.1302 244.49 96.6142L263.1 115.226C266.586 118.71 266.586 124.36 263.1 127.844L244.174 146.77C240.69 150.256 235.04 150.256 231.554 146.77L212.628 127.844C209.144 124.36 209.144 118.71 212.628 115.226L231.236 96.6142C234.722 93.1302 234.722 87.4825 231.236 83.9967L212.628 65.3864C209.144 61.9024 209.144 56.2529 212.628 52.7689L231.554 33.8426C235.04 30.3568 240.69 30.3568 244.174 33.8426Z" fill="#CFAA57"/>
</svg>
